<svg xmlns="http://www.w3.org/2000/svg" width="400" height="300" viewBox="0 0 400 300">
  <defs>
    <linearGradient id="bg4" x1="0%" y1="0%" x2="100%" y2="100%">
      <stop offset="0%" style="stop-color:#0f3460"/>
      <stop offset="100%" style="stop-color:#16213e"/>
    </linearGradient>
  </defs>
  <rect width="400" height="300" fill="url(#bg4)"/>
  <!-- House outline -->
  <polygon points="200,60 300,120 300,220 100,220 100,120" fill="none" stroke="#00d4ff" stroke-width="3"/>
  <polygon points="200,60 300,120 100,120" fill="#00d4ff" opacity="0.1"/>
  <!-- Smart devices -->
  <rect x="130" y="150" width="30" height="40" fill="none" stroke="#e94560" stroke-width="2" rx="2"/>
  <circle cx="200" cy="140" r="15" fill="#e94560"/>
  <rect x="240" y="170" width="40" height="25" fill="none" stroke="#e94560" stroke-width="2" rx="2"/>
  <!-- Connection lines -->
  <line x1="145" y1="150" x2="185" y2="140" stroke="#00d4ff" stroke-width="1" stroke-dasharray="4"/>
  <line x1="215" y1="145" x2="240" y2="175" stroke="#00d4ff" stroke-width="1" stroke-dasharray="4"/>
  <!-- Central shield -->
  <circle cx="200" cy="190" r="25" fill="#00d4ff"/>
  <path d="M200 175 L212 183 L212 197 L200 205 L188 197 L188 183 Z" fill="#1a1a2e"/>
  <text x="200" y="250" font-family="Arial" font-size="20" font-weight="bold" fill="white" text-anchor="middle">IoT Security</text>
</svg>