<svg xmlns="http://www.w3.org/2000/svg" width="400" height="300" viewBox="0 0 400 300">
  <defs>
    <linearGradient id="bg1" x1="0%" y1="0%" x2="100%" y2="100%">
      <stop offset="0%" style="stop-color:#1a1a2e"/>
      <stop offset="100%" style="stop-color:#16213e"/>
    </linearGradient>
  </defs>
  <rect width="400" height="300" fill="url(#bg1)"/>
  <!-- Server rack -->
  <rect x="140" y="60" width="120" height="180" fill="none" stroke="#00d4ff" stroke-width="3" rx="5"/>
  <!-- Server units -->
  <rect x="150" y="75" width="100" height="25" fill="#00d4ff" opacity="0.3" rx="2"/>
  <rect x="150" y="110" width="100" height="25" fill="#00d4ff" opacity="0.3" rx="2"/>
  <rect x="150" y="145" width="100" height="25" fill="#00d4ff" opacity="0.3" rx="2"/>
  <rect x="150" y="180" width="100" height="25" fill="#00d4ff" opacity="0.3" rx="2"/>
  <!-- LED lights -->
  <circle cx="165" cy="87" r="4" fill="#00ff00"/>
  <circle cx="180" cy="87" r="4" fill="#00ff00"/>
  <circle cx="195" cy="87" r="4" fill="#ff0000"/>
  <circle cx="165" cy="122" r="4" fill="#00ff00"/>
  <!-- Shield icon -->
  <path d="M200 20 L220 35 L220 55 L200 70 L180 55 L180 35 Z" fill="#e94560"/>
  <path d="M192 42 L198 50 L210 35" fill="none" stroke="white" stroke-width="2"/>
  <text x="200" y="270" font-family="Arial" font-size="20" font-weight="bold" fill="white" text-anchor="middle">Network Security</text>
</svg>