<svg xmlns="http://www.w3.org/2000/svg" width="400" height="400" viewBox="0 0 400 400">
  <defs>
    <linearGradient id="pbg6" x1="0%" y1="0%" x2="100%" y2="100%">
      <stop offset="0%" style="stop-color:#0f3460"/>
      <stop offset="100%" style="stop-color:#1a1a2e"/>
    </linearGradient>
  </defs>
  <rect width="400" height="400" fill="url(#pbg6)"/>
  <!-- Globe -->
  <circle cx="200" cy="180" r="100" fill="none" stroke="#00d4ff" stroke-width="3"/>
  <ellipse cx="200" cy="180" rx="100" ry="40" fill="none" stroke="#00d4ff" stroke-width="2"/>
  <line x1="200" y1="80" x2="200" y2="280" stroke="#00d4ff" stroke-width="2"/>
  <ellipse cx="200" cy="180" rx="40" ry="100" fill="none" stroke="#00d4ff" stroke-width="2"/>
  <!-- Central lock -->
  <circle cx="200" cy="180" r="35" fill="#e94560"/>
  <rect x="188" y="168" width="24" height="20" fill="#1a1a2e" rx="2"/>
  <rect x="194" y="160" width="12" height="10" fill="none" stroke="#1a1a2e" stroke-width="3"/>
  <!-- Connection points -->
  <circle cx="100" cy="120" r="12" fill="#00d4ff"/>
  <circle cx="300" cy="120" r="12" fill="#00d4ff"/>
  <circle cx="100" cy="240" r="12" fill="#00d4ff"/>
  <circle cx="300" cy="240" r="12" fill="#00d4ff"/>
  <!-- Connection lines -->
  <line x1="110" y1="128" x2="165" y2="170" stroke="#00d4ff" stroke-width="2"/>
  <line x1="290" y1="128" x2="235" y2="170" stroke="#00d4ff" stroke-width="2"/>
  <line x1="110" y1="232" x2="165" y2="190" stroke="#00d4ff" stroke-width="2"/>
  <line x1="290" y1="232" x2="235" y2="190" stroke="#00d4ff" stroke-width="2"/>
  <text x="200" y="340" font-family="Arial" font-size="18" font-weight="bold" fill="white" text-anchor="middle">VPN Shield Ultimate</text>
</svg>