<svg xmlns="http://www.w3.org/2000/svg" width="400" height="400" viewBox="0 0 400 400">
  <defs>
    <linearGradient id="pbg3" x1="0%" y1="0%" x2="100%" y2="100%">
      <stop offset="0%" style="stop-color:#0f3460"/>
      <stop offset="100%" style="stop-color:#16213e"/>
    </linearGradient>
  </defs>
  <rect width="400" height="400" fill="url(#pbg3)"/>
  <!-- House -->
  <polygon points="200,80 320,160 320,320 80,320 80,160" fill="none" stroke="#00d4ff" stroke-width="4"/>
  <polygon points="200,80 320,160 80,160" fill="#00d4ff" opacity="0.1"/>
  <!-- Smart devices -->
  <rect x="110" y="200" width="30" height="40" fill="#e94560" rx="3"/>
  <circle cx="200" cy="180" r="20" fill="#e94560"/>
  <rect x="260" y="250" width="40" height="25" fill="#e94560" rx="3"/>
  <!-- Connection hub -->
  <circle cx="200" cy="250" r="35" fill="#00d4ff"/>
  <path d="M200 235 L212 243 L212 257 L200 265 L188 257 L188 243 Z" fill="#1a1a2e"/>
  <!-- Wifi signals -->
  <path d="M160 130 Q200 100 240 130" fill="none" stroke="#00d4ff" stroke-width="3"/>
  <path d="M170 140 Q200 120 230 140" fill="none" stroke="#00d4ff" stroke-width="2"/>
  <text x="200" y="370" font-family="Arial" font-size="18" font-weight="bold" fill="white" text-anchor="middle">IoT Guardian Shield</text>
</svg>