<svg xmlns="http://www.w3.org/2000/svg" width="400" height="400" viewBox="0 0 400 400">
  <defs>
    <linearGradient id="pbg1" x1="0%" y1="0%" x2="100%" y2="100%">
      <stop offset="0%" style="stop-color:#1a1a2e"/>
      <stop offset="100%" style="stop-color:#0f3460"/>
    </linearGradient>
  </defs>
  <rect width="400" height="400" fill="url(#pbg1)"/>
  <!-- Server rack -->
  <rect x="100" y="80" width="200" height="240" fill="none" stroke="#00d4ff" stroke-width="4" rx="8"/>
  <!-- Server units with status lights -->
  <rect x="115" y="100" width="170" height="35" fill="#16213e" stroke="#00d4ff" stroke-width="2" rx="3"/>
  <circle cx="130" cy="117" r="5" fill="#00ff00"/>
  <circle cx="150" cy="117" r="5" fill="#00ff00"/>
  <circle cx="170" cy="117" r="5" fill="#ff0000"/>
  <rect x="115" y="145" width="170" height="35" fill="#16213e" stroke="#00d4ff" stroke-width="2" rx="3"/>
  <circle cx="130" cy="162" r="5" fill="#00ff00"/>
  <circle cx="150" cy="162" r="5" fill="#00ff00"/>
  <circle cx="170" cy="162" r="5" fill="#00ff00"/>
  <rect x="115" y="190" width="170" height="35" fill="#16213e" stroke="#00d4ff" stroke-width="2" rx="3"/>
  <rect x="115" y="235" width="170" height="35" fill="#16213e" stroke="#00d4ff" stroke-width="2" rx="3"/>
  <!-- Shield overlay -->
  <circle cx="280" cy="320" r="45" fill="#e94560"/>
  <path d="M280 300 L295 310 L295 330 L280 340 L265 330 L265 310 Z" fill="white"/>
  <text x="200" y="370" font-family="Arial" font-size="18" font-weight="bold" fill="white" text-anchor="middle">Enterprise Firewall Pro</text>
</svg>