<svg xmlns="http://www.w3.org/2000/svg" width="400" height="400" viewBox="0 0 400 400">
  <defs>
    <linearGradient id="pbg5" x1="0%" y1="0%" x2="100%" y2="100%">
      <stop offset="0%" style="stop-color:#16213e"/>
      <stop offset="100%" style="stop-color:#1a1a2e"/>
    </linearGradient>
  </defs>
  <rect width="400" height="400" fill="url(#pbg5)"/>
  <!-- E-learning interface -->
  <rect x="40" y="40" width="320" height="300" fill="#0d1117" stroke="#30363d" stroke-width="2" rx="10"/>
  <!-- Video player -->
  <rect x="60" y="60" width="200" height="140" fill="#161b22" rx="5"/>
  <circle cx="160" cy="130" r="35" fill="#00d4ff" opacity="0.8"/>
  <polygon points="150,115 150,145 180,130" fill="#0d1117"/>
  <!-- Progress bar -->
  <rect x="60" y="210" width="200" height="12" fill="#30363d" rx="6"/>
  <rect x="60" y="210" width="140" height="12" fill="#00d4ff" rx="6"/>
  <!-- Module list -->
  <rect x="280" y="60" width="60" height="25" fill="#238636" rx="3"/>
  <rect x="280" y="95" width="60" height="25" fill="#30363d" rx="3"/>
  <rect x="280" y="130" width="60" height="25" fill="#30363d" rx="3"/>
  <rect x="280" y="165" width="60" height="25" fill="#30363d" rx="3"/>
  <!-- Checkmarks -->
  <circle cx="70" cy="72" r="8" fill="#238636"/>
  <polyline points="67,72 70,76 75,69" fill="none" stroke="white" stroke-width="2"/>
  <text x="200" y="370" font-family="Arial" font-size="18" font-weight="bold" fill="white" text-anchor="middle">CyberAware Training Kit</text>
</svg>